[   2s] CDP targets: 1
[   2s]   page: file:///C:/Users/runneradmin/.comfy-test-cache/desktop/ComfyUI/resources/desktop-ui/index.html#/not-supported | ComfyUI
[   3s] Main page: file:///C:/Users/runneradmin/.comfy-test-cache/desktop/ComfyUI/resources/desktop-ui/index.html#/not-supported | ComfyUI
[   3s] Buttons: ['Learn More', 'Report Issue', 'Continue']
[   3s]   wizard: COMFY_TEST_GPU=0 platform=win32 preferred=['CPU']
[   6s]   clicked [BTN|Continue]
[   9s]   url: file:///C:/Users/runneradmin/.comfy-test-cache/desktop/ComfyUI/resources/desktop-ui/index.html#/not-supported -> file:///C:/Users/runneradmin/.comfy-test-cache/desktop/ComfyUI/resources/desktop-ui/index.html#/install
[   9s]   clicked [TILE|CPU]
[  13s]   clicked [BTN|Next]
[  20s]   clicked [BTN|Next]
[  24s]   clicked [BTN|Install]
[  27s]   url: file:///C:/Users/runneradmin/.comfy-test-cache/desktop/ComfyUI/resources/desktop-ui/index.html#/install -> file:///C:/Users/runneradmin/.comfy-test-cache/desktop/ComfyUI/resources/desktop-ui/index.html#/server-start
[ 135s]   /system_stats up after 131s
[ 135s]   app: waiting for backend stability (continuous /system_stats up for 30s)
[ 135s]   app: /system_stats up; awaiting 30s of stability
[ 166s]   app: backend stable for 30s; proceeding
[ 166s]   capturing canvas load...
[ 174s]   post: waiting for Cloud upsell
[ 207s]   post: Cloud upsell not found, skipping
[ 207s]   post: pressed Escape (Cloud upsell fallback)
[ 209s]   post: waiting for Close Templates
[ 221s]   post: Close Templates not found, skipping
[ 221s]   post: pressed Escape (Close Templates fallback)
[ 223s]   post: waiting for Extensions
[ 224s]   post: clicked Extensions via [button[aria-label="Extensions"]:visible]
[ 226s]   ext: node meta = display='SAM3' publisher='pznodes' version='0.1.15'
[ 229s]   ext: searching "SAM3"
[ 232s]   ext: clicking SAM3 by pznodes tile
[ 236s]   ext: scrolling to + opening version selector
[ 239s]   ext: selected 0.1.15
[ 241s]   ext: clicking right-panel Install
[ 242s]   ext: clicked Install (last of 8 visible)
[ 251s]   ext: waiting for "Apply Changes" toast
[ 251s]   ext: clicked Apply Changes
[ 256s]   app: Apply Changes already triggered in-app restart, skipping pkill
[ 261s]   app: relaunching with CDP
[ 261s]   app: waiting for CDP
[ 262s]   app: CDP up after 1s
[ 262s]   app: reconnecting Playwright
[ 263s]   app: attached to http://127.0.0.1:8000/
[ 443s]   app: server ready after 44s
[ 443s]   app: waiting for main canvas (window.app.graph)
[ 443s]   app: canvas ready after 1s (http://127.0.0.1:8000/)
[ 448s]   app: forcing renderer reload to refresh node-pack manifest
[ 451s]   app: canvas re-ready after reload in 3s
[ 454s]   ext: closing Nodes Manager dialog
[ 454s]   ext: dismissing What's New popup
[ 455s]   ext: closed What's New popup
[ 457s]   ext: dismissing Node Pack Issues modal (if present)
[ 457s]   ext: Node Pack Issues modal not present
[ 457s]   ext: opening Templates sidebar
[ 457s]   ext: clicked Templates
[ 461s]   ext: locating "comfyui-sam3" section in Templates panel
[ 463s]   ext: clicked comfyui-sam3 section
[ 465s]   ext: fetching comfy-test.toml from https://raw.githubusercontent.com/PozzettiAndrea/ComfyUI-SAM3/main/comfy-test.toml
[ 465s]   ext: cpu spec = exclude ['video_point_prompt']
[ 465s]   ext: picking first matching comfyui-sam3 template
[ 465s]   ext: 5 visible cards
[ 467s]   ext: clicked template image_seg_point
[ 472s]   ext: installing WS execution listener
[ 472s]   ext: clicking Run
[ 473s]   ext: clicked Run
[ 473s]   ext: waiting for execution_success / execution_error
[ 593s]   ext: WS events=230 elapsed=119s
[ 593s]     ws: {'type': 'progress_state', 'ts': 1778382634348}
[ 593s]     ws: {'type': 'progress_state', 'ts': 1778382634349}
[ 593s]     ws: {'type': 'executing', 'ts': 1778382634350}
[ 593s]     ws: {'type': 'progress_state', 'ts': 1778382721351}
[ 593s]     ws: {'type': 'progress_state', 'ts': 1778382721353}
[ 593s]     ws: {'type': 'executing', 'ts': 1778382721364}
[ 593s]     ws: {'type': 'executed', 'ts': 1778382721448}
[ 593s]     ws: {'type': 'progress_state', 'ts': 1778382721450}
[ 593s]     ws: {'type': 'progress_state', 'ts': 1778382721466}
[ 593s]     ws: {'type': 'executing', 'ts': 1778382721467}
[ 593s]     ws: {'type': 'executed', 'ts': 1778382721530}
[ 593s]     ws: {'type': 'progress_state', 'ts': 1778382721533}
[ 593s]     ws: {'type': 'execution_success', 'ts': 1778382721536}
[ 593s]     ws: {'type': 'status', 'ts': 1778382721538}
[ 593s]     ws: {'type': 'executing', 'ts': 1778382721538}
[ 593s]   ext: execution_success after 119s
[ 598s]   ext: fetching comfy-test.toml from https://raw.githubusercontent.com/PozzettiAndrea/ComfyUI-SAM3/main/comfy-test.toml
[ 598s]   ext: cpu spec = exclude ['video_point_prompt']
[ 598s]   loop: workflows/ from $COMFY_TEST_WORKFLOWS -> ['image_seg_point', 'image_seg_text', 'scene_seg', 'scene_seg_interactive', 'video_point_prompt']
[ 598s]   loop: spec=exclude items=['video_point_prompt'] -> 4 workflow(s) ['image_seg_point', 'image_seg_text', 'scene_seg', 'scene_seg_interactive']
[ 598s]   loop: matching=4 first_ran='image_seg_point' remaining=3 -> ['image_seg_text', 'scene_seg', 'scene_seg_interactive']
[ 598s]   loop: full restart for workflow 2/4 (image_seg_text)
[ 598s]   loop: closing current browser
[ 598s]   loop: killing ComfyUI process
[ 603s]   loop: launching ComfyUI with --remote-debugging-port=0
[ 603s]   loop: waiting for DevToolsActivePort at C:\Users\runneradmin\AppData\Roaming\ComfyUI\DevToolsActivePort
[ 605s]   loop: DevToolsActivePort -> 54521 after 3s
[ 605s]   loop: reconnecting Playwright on port 54521
[ 607s]   loop: attached to file:///C:/Users/runneradmin/.comfy-test-cache/desktop/ComfyUI/resources/desktop-ui/index.html#/desktop-start
[ 607s]   loop: server ready after 1s
[ 637s]   loop: canvas ready after 26s
[ 637s]   loop: forcing renderer reload
[ 639s]   loop: canvas ready after 2s
[ 642s]   ext: closing Nodes Manager dialog
[ 642s]   ext: dismissing What's New popup
[ 642s]   ext: What's New popup not present
[ 642s]   ext: dismissing Node Pack Issues modal (if present)
[ 642s]   ext: Node Pack Issues modal not present
[ 642s]   ext: opening Templates sidebar
[ 643s]   ext: clicked Templates
[ 647s]   ext: locating "comfyui-sam3" section in Templates panel
[ 649s]   ext: clicked comfyui-sam3 section
[ 651s]   ext: clicking template image_seg_text
[ 653s]   ext: clicked template image_seg_text
[ 658s]   ext: installing WS execution listener
[ 658s]   ext: clicking Run
[ 659s]   ext: clicked Run
[ 659s]   ext: waiting for execution_success / execution_error
[ 746s]   ext: WS events=23 elapsed=87s
[ 746s]     ws: {'type': 'executing', 'ts': 1778382787468}
[ 746s]     ws: {'type': 'progress_state', 'ts': 1778382794068}
[ 746s]     ws: {'type': 'progress_state', 'ts': 1778382794071}
[ 746s]     ws: {'type': 'executing', 'ts': 1778382794082}
[ 746s]     ws: {'type': 'progress_state', 'ts': 1778382874642}
[ 746s]     ws: {'type': 'progress_state', 'ts': 1778382874645}
[ 746s]     ws: {'type': 'executing', 'ts': 1778382874645}
[ 746s]     ws: {'type': 'executed', 'ts': 1778382874708}
[ 746s]     ws: {'type': 'progress_state', 'ts': 1778382874710}
[ 746s]     ws: {'type': 'progress_state', 'ts': 1778382874712}
[ 746s]     ws: {'type': 'executing', 'ts': 1778382874713}
[ 746s]     ws: {'type': 'executed', 'ts': 1778382874937}
[ 746s]     ws: {'type': 'progress_state', 'ts': 1778382874939}
[ 746s]     ws: {'type': 'execution_success', 'ts': 1778382874943}
[ 746s]     ws: {'type': 'status', 'ts': 1778382874945}
[ 746s]   ext: execution_success after 87s
[ 751s]   loop: full restart for workflow 3/4 (scene_seg)
[ 751s]   loop: closing current browser
[ 751s]   loop: killing ComfyUI process
[ 756s]   loop: launching ComfyUI with --remote-debugging-port=0
[ 756s]   loop: waiting for DevToolsActivePort at C:\Users\runneradmin\AppData\Roaming\ComfyUI\DevToolsActivePort
[ 758s]   loop: DevToolsActivePort -> 54782 after 3s
[ 758s]   loop: reconnecting Playwright on port 54782
[ 759s]   loop: attached to file:///C:/Users/runneradmin/.comfy-test-cache/desktop/ComfyUI/resources/desktop-ui/index.html#/desktop-start
[ 759s]   loop: server ready after 1s
[ 785s]   loop: canvas ready after 24s
[ 785s]   loop: forcing renderer reload
[ 787s]   loop: canvas ready after 2s
[ 790s]   ext: closing Nodes Manager dialog
[ 790s]   ext: dismissing What's New popup
[ 790s]   ext: What's New popup not present
[ 790s]   ext: dismissing Node Pack Issues modal (if present)
[ 790s]   ext: Node Pack Issues modal not present
[ 790s]   ext: opening Templates sidebar
[ 791s]   ext: clicked Templates
[ 795s]   ext: locating "comfyui-sam3" section in Templates panel
[ 797s]   ext: clicked comfyui-sam3 section
[ 799s]   ext: clicking template scene_seg
[ 801s]   ext: clicked template scene_seg
[ 806s]   ext: installing WS execution listener
[ 806s]   ext: clicking Run
[ 807s]   ext: clicked Run
[ 807s]   ext: waiting for execution_success / execution_error
[ 912s]   ext: WS events=54 elapsed=104s
[ 912s]     ws: {'type': 'progress_state', 'ts': 1778383038869}
[ 912s]     ws: {'type': 'executing', 'ts': 1778383038869}
[ 912s]     ws: {'type': 'progress_state', 'ts': 1778383039139}
[ 912s]     ws: {'type': 'progress_state', 'ts': 1778383039141}
[ 912s]     ws: {'type': 'executing', 'ts': 1778383039141}
[ 912s]     ws: {'type': 'progress_state', 'ts': 1778383039181}
[ 912s]     ws: {'type': 'progress_state', 'ts': 1778383039195}
[ 912s]     ws: {'type': 'executing', 'ts': 1778383039206}
[ 912s]     ws: {'type': 'executed', 'ts': 1778383039541}
[ 912s]     ws: {'type': 'progress_state', 'ts': 1778383039555}
[ 912s]     ws: {'type': 'progress_state', 'ts': 1778383039569}
[ 912s]     ws: {'type': 'executing', 'ts': 1778383039570}
[ 912s]     ws: {'type': 'progress_state', 'ts': 1778383040140}
[ 912s]     ws: {'type': 'execution_success', 'ts': 1778383040144}
[ 912s]     ws: {'type': 'status', 'ts': 1778383040149}
[ 912s]   ext: execution_success after 104s
[ 917s]   loop: full restart for workflow 4/4 (scene_seg_interactive)
[ 917s]   loop: closing current browser
[ 917s]   loop: killing ComfyUI process
[ 922s]   loop: launching ComfyUI with --remote-debugging-port=0
[ 922s]   loop: waiting for DevToolsActivePort at C:\Users\runneradmin\AppData\Roaming\ComfyUI\DevToolsActivePort
[ 924s]   loop: DevToolsActivePort -> 55053 after 3s
[ 924s]   loop: reconnecting Playwright on port 55053
[ 925s]   loop: attached to file:///C:/Users/runneradmin/.comfy-test-cache/desktop/ComfyUI/resources/desktop-ui/index.html#/desktop-start
[ 926s]   loop: server ready after 1s
[ 955s]   loop: canvas ready after 26s
[ 955s]   loop: forcing renderer reload
[ 957s]   loop: canvas ready after 2s
[ 961s]   ext: closing Nodes Manager dialog
[ 961s]   ext: dismissing What's New popup
[ 961s]   ext: What's New popup not present
[ 961s]   ext: dismissing Node Pack Issues modal (if present)
[ 961s]   ext: Node Pack Issues modal not present
[ 961s]   ext: opening Templates sidebar
[ 961s]   ext: clicked Templates
[ 966s]   ext: locating "comfyui-sam3" section in Templates panel
[ 967s]   ext: clicked comfyui-sam3 section
[ 970s]   ext: clicking template scene_seg_interactive
[ 971s]   ext: clicked template scene_seg_interactive
[ 977s]   ext: installing WS execution listener
[ 977s]   ext: clicking Run
[ 977s]   ext: clicked Run
[ 977s]   ext: waiting for execution_success / execution_error
[1061s]   ext: WS events=23 elapsed=84s
[1061s]     ws: {'type': 'executing', 'ts': 1778383106783}
[1061s]     ws: {'type': 'progress_state', 'ts': 1778383113996}
[1061s]     ws: {'type': 'progress_state', 'ts': 1778383113999}
[1061s]     ws: {'type': 'executing', 'ts': 1778383113999}
[1061s]     ws: {'type': 'progress_state', 'ts': 1778383183933}
[1061s]     ws: {'type': 'progress', 'ts': 1778383183933}
[1061s]     ws: {'type': 'executed', 'ts': 1778383188842}
[1061s]     ws: {'type': 'progress_state', 'ts': 1778383188987}
[1061s]     ws: {'type': 'progress_state', 'ts': 1778383188990}
[1061s]     ws: {'type': 'executing', 'ts': 1778383188990}
[1061s]     ws: {'type': 'executed', 'ts': 1778383189623}
[1061s]     ws: {'type': 'progress_state', 'ts': 1778383189654}
[1061s]     ws: {'type': 'execution_success', 'ts': 1778383189659}
[1061s]     ws: {'type': 'status', 'ts': 1778383189661}
[1061s]     ws: {'type': 'executing', 'ts': 1778383189661}
[1061s]   ext: execution_success after 84s
[1067s] Captured 1254 frames
[1067s] Wrote D:\a\comfy-gpu-ci\comfy-gpu-ci\comfy-test-logs\SAM3-0301\dev\windows-desktop\results.json (4 workflow(s), sha=d0c359e3cec4)
ffmpeg version 7.1-essentials_build-www.gyan.dev Copyright (c) 2000-2024 the FFmpeg developers
  built with gcc 14.2.0 (Rev1, Built by MSYS2 project)
  configuration: --enable-gpl --enable-version3 --enable-static --disable-w32threads --disable-autodetect --enable-fontconfig --enable-iconv --enable-gnutls --enable-libxml2 --enable-gmp --enable-bzlib --enable-lzma --enable-zlib --enable-libsrt --enable-libssh --enable-libzmq --enable-avisynth --enable-sdl2 --enable-libwebp --enable-libx264 --enable-libx265 --enable-libxvid --enable-libaom --enable-libopenjpeg --enable-libvpx --enable-mediafoundation --enable-libass --enable-libfreetype --enable-libfribidi --enable-libharfbuzz --enable-libvidstab --enable-libvmaf --enable-libzimg --enable-amf --enable-cuda-llvm --enable-cuvid --enable-dxva2 --enable-d3d11va --enable-d3d12va --enable-ffnvcodec --enable-libvpl --enable-nvdec --enable-nvenc --enable-vaapi --enable-libgme --enable-libopenmpt --enable-libopencore-amrwb --enable-libmp3lame --enable-libtheora --enable-libvo-amrwbenc --enable-libgsm --enable-libopencore-amrnb --enable-libopus --enable-libspeex --enable-libvorbis --enable-librubberband
  libavutil      59. 39.100 / 59. 39.100
  libavcodec     61. 19.100 / 61. 19.100
  libavformat    61.  7.100 / 61.  7.100
  libavdevice    61.  3.100 / 61.  3.100
  libavfilter    10.  4.100 / 10.  4.100
  libswscale      8.  3.100 /  8.  3.100
  libswresample   5.  3.100 /  5.  3.100
  libpostproc    58.  3.100 / 58.  3.100
Input #0, image2, from 'D:\a\comfy-gpu-ci\comfy-gpu-ci\comfy-test-logs\SAM3-0301\dev\windows-desktop\debug\electron_inspect\frames\frame_%06d.png':
  Duration: 00:04:10.80, start: 0.000000, bitrate: N/A
  Stream #0:0: Video: png, rgb24(pc, gbr/bt709/iec61966-2-1), 1008x681, 5 fps, 5 tbr, 5 tbn
Stream mapping:
  Stream #0:0 -> #0:0 (png (native) -> h264 (libx264))
Press [q] to stop, [?] for help
[libx264 @ 0000016ccf8b5c40] using cpu capabilities: MMX2 SSE2Fast SSSE3 SSE4.2 AVX FMA3 BMI2 AVX2
[libx264 @ 0000016ccf8b5c40] profile High, level 3.1, 4:2:0, 8-bit
[libx264 @ 0000016ccf8b5c40] 264 - core 164 r3192 c24e06c - H.264/MPEG-4 AVC codec - Copyleft 2003-2024 - http://www.videolan.org/x264.html - options: cabac=1 ref=3 deblock=1:0:0 analyse=0x3:0x113 me=hex subme=7 psy=1 psy_rd=1.00:0.00 mixed_ref=1 me_range=16 chroma_me=1 trellis=1 8x8dct=1 cqm=0 deadzone=21,11 fast_pskip=1 chroma_qp_offset=-2 threads=6 lookahead_threads=1 sliced_threads=0 nr=0 decimate=1 interlaced=0 bluray_compat=0 constrained_intra=0 bframes=3 b_pyramid=2 b_adapt=1 b_bias=0 direct=1 weightb=1 open_gop=0 weightp=2 keyint=250 keyint_min=5 scenecut=40 intra_refresh=0 rc_lookahead=40 rc=crf mbtree=1 crf=23.0 qcomp=0.60 qpmin=0 qpmax=69 qpstep=4 ip_ratio=1.40 aq=1:1.00
Output #0, mp4, to 'D:\a\comfy-gpu-ci\comfy-gpu-ci\comfy-test-logs\SAM3-0301\dev\windows-desktop\debug\electron_inspect\driver.mp4':
  Metadata:
    encoder         : Lavf61.7.100
  Stream #0:0: Video: h264 (avc1 / 0x31637661), yuv420p(tv, unknown/bt709/iec61966-2-1, progressive), 1008x682, q=2-31, 5 fps, 10240 tbn
      Metadata:
        encoder         : Lavc61.19.100 libx264
      Side data:
        cpb: bitrate max/min/avg: 0/0/0 buffer size: 0 vbv_delay: N/A
[vf#0:0 @ 0000016ccf960c80] Reconfiguring filter graph because video parameters changed to rgba(pc, gbr), 1008x681
frame=   17 fps=0.0 q=23.0 size=       0KiB time=00:00:03.00 bitrate=   0.1kbits/s speed=5.91x    
[vf#0:0 @ 0000016ccf960c80] Reconfiguring filter graph because video parameters changed to rgb24(pc, gbr), 1008x681
frame=   75 fps= 74 q=23.0 size=     256KiB time=00:00:14.60 bitrate= 143.7kbits/s speed=14.3x    
frame=  135 fps= 88 q=23.0 size=     256KiB time=00:00:26.60 bitrate=  78.9kbits/s speed=17.3x    
frame=  198 fps= 97 q=23.0 size=     512KiB time=00:00:39.20 bitrate= 107.0kbits/s speed=19.1x    
[vf#0:0 @ 0000016ccf960c80] Reconfiguring filter graph because video parameters changed to rgba(pc, gbr), 1008x681
frame=  274 fps=107 q=23.0 size=     512KiB time=00:00:54.40 bitrate=  77.1kbits/s speed=21.2x    
[vf#0:0 @ 0000016ccf960c80] Reconfiguring filter graph because video parameters changed to rgb24(pc, gbr), 1008x681
frame=  338 fps=108 q=23.0 size=     768KiB time=00:01:07.20 bitrate=  93.6kbits/s speed=21.6x    
frame=  408 fps=112 q=23.0 size=    1024KiB time=00:01:21.20 bitrate= 103.3kbits/s speed=22.3x    
frame=  482 fps=116 q=23.0 size=    1024KiB time=00:01:36.00 bitrate=  87.4kbits/s speed=  23x    
[vf#0:0 @ 0000016ccf960c80] Reconfiguring filter graph because video parameters changed to rgba(pc, gbr), 1008x681
frame=  548 fps=117 q=23.0 size=    1024KiB time=00:01:49.20 bitrate=  76.8kbits/s speed=23.3x    
[vf#0:0 @ 0000016ccf960c80] Reconfiguring filter graph because video parameters changed to rgb24(pc, gbr), 1008x681
frame=  596 fps=114 q=23.0 size=    1280KiB time=00:01:58.80 bitrate=  88.3kbits/s speed=22.8x    
frame=  671 fps=117 q=23.0 size=    1536KiB time=00:02:13.80 bitrate=  94.0kbits/s speed=23.3x    
frame=  745 fps=119 q=23.0 size=    1536KiB time=00:02:28.60 bitrate=  84.7kbits/s speed=23.8x    
[vf#0:0 @ 0000016ccf960c80] Reconfiguring filter graph because video parameters changed to rgba(pc, gbr), 1008x681
[vf#0:0 @ 0000016ccf960c80] Reconfiguring filter graph because video parameters changed to rgb24(pc, gbr), 1008x681
frame=  802 fps=118 q=23.0 size=    1792KiB time=00:02:40.00 bitrate=  91.8kbits/s speed=23.6x    
frame=  864 fps=119 q=23.0 size=    2048KiB time=00:02:52.40 bitrate=  97.3kbits/s speed=23.7x    
frame=  952 fps=122 q=23.0 size=    2048KiB time=00:03:10.00 bitrate=  88.3kbits/s speed=24.4x    
[vf#0:0 @ 0000016ccf960c80] Reconfiguring filter graph because video parameters changed to rgba(pc, gbr), 1008x681
[vf#0:0 @ 0000016ccf960c80] Reconfiguring filter graph because video parameters changed to rgb24(pc, gbr), 1008x681
frame= 1027 fps=123 q=23.0 size=    2048KiB time=00:03:25.00 bitrate=  81.8kbits/s speed=24.6x    
frame= 1077 fps=122 q=23.0 size=    2304KiB time=00:03:35.00 bitrate=  87.8kbits/s speed=24.3x    
frame= 1151 fps=123 q=23.0 size=    2560KiB time=00:03:49.80 bitrate=  91.3kbits/s speed=24.6x    
[out#0/mp4 @ 0000016ccfc47f00] video:2734KiB audio:0KiB subtitle:0KiB other streams:0KiB global headers:0KiB muxing overhead: 0.558732%
frame= 1254 fps=128 q=-1.0 Lsize=    2749KiB time=00:04:10.40 bitrate=  89.9kbits/s speed=25.5x    
[libx264 @ 0000016ccf8b5c40] frame I:21    Avg QP: 6.64  size: 35551
[libx264 @ 0000016ccf8b5c40] frame P:355   Avg QP:15.34  size:  3969
[libx264 @ 0000016ccf8b5c40] frame B:878   Avg QP:21.74  size:   733
[libx264 @ 0000016ccf8b5c40] consecutive B-frames:  5.0%  4.0%  2.6% 88.4%
[libx264 @ 0000016ccf8b5c40] mb I  I16..4: 63.9% 13.7% 22.5%
[libx264 @ 0000016ccf8b5c40] mb P  I16..4:  2.3%  2.1%  2.3%  P16..4:  1.9%  0.7%  0.5%  0.0%  0.0%    skip:90.3%
[libx264 @ 0000016ccf8b5c40] mb B  I16..4:  0.3%  0.3%  0.2%  B16..8:  3.7%  0.4%  0.1%  direct: 0.2%  skip:94.8%  L0:57.9% L1:39.5% BI: 2.6%
[libx264 @ 0000016ccf8b5c40] 8x8 transform intra:24.9% inter:50.3%
[libx264 @ 0000016ccf8b5c40] coded y,uvDC,uvAC intra: 33.8% 18.5% 14.8% inter: 0.9% 0.7% 0.2%
[libx264 @ 0000016ccf8b5c40] i16 v,h,dc,p: 70% 26%  2%  2%
[libx264 @ 0000016ccf8b5c40] i8 v,h,dc,ddl,ddr,vr,hd,vl,hu: 33% 20% 32%  2%  2%  2%  3%  2%  4%
[libx264 @ 0000016ccf8b5c40] i4 v,h,dc,ddl,ddr,vr,hd,vl,hu: 35% 32% 14%  2%  3%  3%  4%  3%  4%
[libx264 @ 0000016ccf8b5c40] i8c dc,h,v,p: 79% 12%  6%  3%
[libx264 @ 0000016ccf8b5c40] Weighted P-Frames: Y:1.1% UV:0.6%
[libx264 @ 0000016ccf8b5c40] ref P L0: 66.1%  3.8% 15.6% 14.4%  0.1%
[libx264 @ 0000016ccf8b5c40] ref B L0: 65.5% 33.1%  1.4%
[libx264 @ 0000016ccf8b5c40] ref B L1: 96.7%  3.3%
[libx264 @ 0000016ccf8b5c40] kb/s:89.28
[1077s] Wrote D:\a\comfy-gpu-ci\comfy-gpu-ci\comfy-test-logs\SAM3-0301\dev\windows-desktop\debug\electron_inspect\driver.mp4
ffmpeg version 7.1-essentials_build-www.gyan.dev Copyright (c) 2000-2024 the FFmpeg developers
  built with gcc 14.2.0 (Rev1, Built by MSYS2 project)
  configuration: --enable-gpl --enable-version3 --enable-static --disable-w32threads --disable-autodetect --enable-fontconfig --enable-iconv --enable-gnutls --enable-libxml2 --enable-gmp --enable-bzlib --enable-lzma --enable-zlib --enable-libsrt --enable-libssh --enable-libzmq --enable-avisynth --enable-sdl2 --enable-libwebp --enable-libx264 --enable-libx265 --enable-libxvid --enable-libaom --enable-libopenjpeg --enable-libvpx --enable-mediafoundation --enable-libass --enable-libfreetype --enable-libfribidi --enable-libharfbuzz --enable-libvidstab --enable-libvmaf --enable-libzimg --enable-amf --enable-cuda-llvm --enable-cuvid --enable-dxva2 --enable-d3d11va --enable-d3d12va --enable-ffnvcodec --enable-libvpl --enable-nvdec --enable-nvenc --enable-vaapi --enable-libgme --enable-libopenmpt --enable-libopencore-amrwb --enable-libmp3lame --enable-libtheora --enable-libvo-amrwbenc --enable-libgsm --enable-libopencore-amrnb --enable-libopus --enable-libspeex --enable-libvorbis --enable-librubberband
  libavutil      59. 39.100 / 59. 39.100
  libavcodec     61. 19.100 / 61. 19.100
  libavformat    61.  7.100 / 61.  7.100
  libavdevice    61.  3.100 / 61.  3.100
  libavfilter    10.  4.100 / 10.  4.100
  libswscale      8.  3.100 /  8.  3.100
  libswresample   5.  3.100 /  5.  3.100
  libpostproc    58.  3.100 / 58.  3.100
Input #0, image2, from 'D:\a\comfy-gpu-ci\comfy-gpu-ci\comfy-test-logs\SAM3-0301\dev\windows-desktop\debug\electron_inspect\frames\frame_%06d.png':
  Duration: 00:02:59.60, start: 0.000000, bitrate: N/A
  Stream #0:0: Video: png, rgb24(pc, gbr/bt709/iec61966-2-1), 1008x681, 5 fps, 5 tbr, 5 tbn
Stream mapping:
  Stream #0:0 -> #0:0 (png (native) -> h264 (libx264))
Press [q] to stop, [?] for help
[libx264 @ 000002251087c700] using cpu capabilities: MMX2 SSE2Fast SSSE3 SSE4.2 AVX FMA3 BMI2 AVX2
[libx264 @ 000002251087c700] profile High, level 3.1, 4:2:0, 8-bit
[libx264 @ 000002251087c700] 264 - core 164 r3192 c24e06c - H.264/MPEG-4 AVC codec - Copyleft 2003-2024 - http://www.videolan.org/x264.html - options: cabac=1 ref=3 deblock=1:0:0 analyse=0x3:0x113 me=hex subme=7 psy=1 psy_rd=1.00:0.00 mixed_ref=1 me_range=16 chroma_me=1 trellis=1 8x8dct=1 cqm=0 deadzone=21,11 fast_pskip=1 chroma_qp_offset=-2 threads=6 lookahead_threads=1 sliced_threads=0 nr=0 decimate=1 interlaced=0 bluray_compat=0 constrained_intra=0 bframes=3 b_pyramid=2 b_adapt=1 b_bias=0 direct=1 weightb=1 open_gop=0 weightp=2 keyint=250 keyint_min=5 scenecut=40 intra_refresh=0 rc_lookahead=40 rc=crf mbtree=1 crf=23.0 qcomp=0.60 qpmin=0 qpmax=69 qpstep=4 ip_ratio=1.40 aq=1:1.00
Output #0, mp4, to 'D:\a\comfy-gpu-ci\comfy-gpu-ci\comfy-test-logs\SAM3-0301\dev\windows-desktop\videos\image_seg_point\driver.mp4':
  Metadata:
    encoder         : Lavf61.7.100
  Stream #0:0: Video: h264 (avc1 / 0x31637661), yuv420p(tv, unknown/bt709/iec61966-2-1, progressive), 1008x682, q=2-31, 5 fps, 10240 tbn
      Metadata:
        encoder         : Lavc61.19.100 libx264
      Side data:
        cpb: bitrate max/min/avg: 0/0/0 buffer size: 0 vbv_delay: N/A
frame=   34 fps=0.0 q=23.0 size=       0KiB time=00:00:06.40 bitrate=   0.1kbits/s speed=12.2x    
frame=  103 fps= 99 q=23.0 size=       0KiB time=00:00:20.20 bitrate=   0.0kbits/s speed=19.5x    
[out#0/mp4 @ 000002251020b9c0] video:115KiB audio:0KiB subtitle:0KiB other streams:0KiB global headers:0KiB muxing overhead: 2.721719%
frame=  195 fps=128 q=-1.0 Lsize=     118KiB time=00:00:38.60 bitrate=  25.1kbits/s speed=25.3x    
[libx264 @ 000002251087c700] frame I:1     Avg QP:10.94  size: 47964
[libx264 @ 000002251087c700] frame P:49    Avg QP:13.94  size:   801
[libx264 @ 000002251087c700] frame B:145   Avg QP:22.68  size:   206
[libx264 @ 000002251087c700] consecutive B-frames:  0.5%  1.0%  0.0% 98.5%
[libx264 @ 000002251087c700] mb I  I16..4: 45.5% 28.9% 25.6%
[libx264 @ 000002251087c700] mb P  I16..4:  0.3%  0.0%  0.2%  P16..4:  0.9%  0.1%  0.1%  0.0%  0.0%    skip:98.5%
[libx264 @ 000002251087c700] mb B  I16..4:  0.0%  0.0%  0.0%  B16..8:  5.6%  0.1%  0.0%  direct: 0.0%  skip:94.3%  L0:59.3% L1:40.5% BI: 0.2%
[libx264 @ 000002251087c700] 8x8 transform intra:26.1% inter:51.3%
[libx264 @ 000002251087c700] coded y,uvDC,uvAC intra: 40.1% 18.2% 15.0% inter: 0.1% 0.1% 0.0%
[libx264 @ 000002251087c700] i16 v,h,dc,p: 52% 48%  0%  0%
[libx264 @ 000002251087c700] i8 v,h,dc,ddl,ddr,vr,hd,vl,hu: 32% 16% 51%  0%  0%  0%  0%  0%  0%
[libx264 @ 000002251087c700] i4 v,h,dc,ddl,ddr,vr,hd,vl,hu: 35% 36% 10%  2%  3%  3%  4%  3%  4%
[libx264 @ 000002251087c700] i8c dc,h,v,p: 71% 21%  7%  1%
[libx264 @ 000002251087c700] Weighted P-Frames: Y:0.0% UV:0.0%
[libx264 @ 000002251087c700] ref P L0: 79.3%  0.7% 15.9%  4.1%
[libx264 @ 000002251087c700] ref B L0: 44.7% 54.0%  1.2%
[libx264 @ 000002251087c700] ref B L1: 98.8%  1.2%
[libx264 @ 000002251087c700] kb/s:24.00
[1079s]   videos/image_seg_point/driver.mp4 placed (frames 357..551)
[1079s]   screenshots/image_seg_point_executed.png placed
ffmpeg version 7.1-essentials_build-www.gyan.dev Copyright (c) 2000-2024 the FFmpeg developers
  built with gcc 14.2.0 (Rev1, Built by MSYS2 project)
  configuration: --enable-gpl --enable-version3 --enable-static --disable-w32threads --disable-autodetect --enable-fontconfig --enable-iconv --enable-gnutls --enable-libxml2 --enable-gmp --enable-bzlib --enable-lzma --enable-zlib --enable-libsrt --enable-libssh --enable-libzmq --enable-avisynth --enable-sdl2 --enable-libwebp --enable-libx264 --enable-libx265 --enable-libxvid --enable-libaom --enable-libopenjpeg --enable-libvpx --enable-mediafoundation --enable-libass --enable-libfreetype --enable-libfribidi --enable-libharfbuzz --enable-libvidstab --enable-libvmaf --enable-libzimg --enable-amf --enable-cuda-llvm --enable-cuvid --enable-dxva2 --enable-d3d11va --enable-d3d12va --enable-ffnvcodec --enable-libvpl --enable-nvdec --enable-nvenc --enable-vaapi --enable-libgme --enable-libopenmpt --enable-libopencore-amrwb --enable-libmp3lame --enable-libtheora --enable-libvo-amrwbenc --enable-libgsm --enable-libopencore-amrnb --enable-libopus --enable-libspeex --enable-libvorbis --enable-librubberband
  libavutil      59. 39.100 / 59. 39.100
  libavcodec     61. 19.100 / 61. 19.100
  libavformat    61.  7.100 / 61.  7.100
  libavdevice    61.  3.100 / 61.  3.100
  libavfilter    10.  4.100 / 10.  4.100
  libswscale      8.  3.100 /  8.  3.100
  libswresample   5.  3.100 /  5.  3.100
  libpostproc    58.  3.100 / 58.  3.100
Input #0, image2, from 'D:\a\comfy-gpu-ci\comfy-gpu-ci\comfy-test-logs\SAM3-0301\dev\windows-desktop\debug\electron_inspect\frames\frame_%06d.png':
  Duration: 00:02:09.60, start: 0.000000, bitrate: N/A
  Stream #0:0: Video: png, rgba(pc, gbr/bt709/iec61966-2-1), 1008x681, 5 fps, 5 tbr, 5 tbn
Stream mapping:
  Stream #0:0 -> #0:0 (png (native) -> h264 (libx264))
Press [q] to stop, [?] for help
[libx264 @ 0000024bd3df1440] using cpu capabilities: MMX2 SSE2Fast SSSE3 SSE4.2 AVX FMA3 BMI2 AVX2
[libx264 @ 0000024bd3df1440] profile High, level 3.1, 4:2:0, 8-bit
[libx264 @ 0000024bd3df1440] 264 - core 164 r3192 c24e06c - H.264/MPEG-4 AVC codec - Copyleft 2003-2024 - http://www.videolan.org/x264.html - options: cabac=1 ref=3 deblock=1:0:0 analyse=0x3:0x113 me=hex subme=7 psy=1 psy_rd=1.00:0.00 mixed_ref=1 me_range=16 chroma_me=1 trellis=1 8x8dct=1 cqm=0 deadzone=21,11 fast_pskip=1 chroma_qp_offset=-2 threads=6 lookahead_threads=1 sliced_threads=0 nr=0 decimate=1 interlaced=0 bluray_compat=0 constrained_intra=0 bframes=3 b_pyramid=2 b_adapt=1 b_bias=0 direct=1 weightb=1 open_gop=0 weightp=2 keyint=250 keyint_min=5 scenecut=40 intra_refresh=0 rc_lookahead=40 rc=crf mbtree=1 crf=23.0 qcomp=0.60 qpmin=0 qpmax=69 qpstep=4 ip_ratio=1.40 aq=1:1.00
Output #0, mp4, to 'D:\a\comfy-gpu-ci\comfy-gpu-ci\comfy-test-logs\SAM3-0301\dev\windows-desktop\videos\image_seg_text\driver.mp4':
  Metadata:
    encoder         : Lavf61.7.100
  Stream #0:0: Video: h264 (avc1 / 0x31637661), yuv420p(tv, unknown/bt709/iec61966-2-1, progressive), 1008x682, q=2-31, 5 fps, 10240 tbn
      Metadata:
        encoder         : Lavc61.19.100 libx264
      Side data:
        cpb: bitrate max/min/avg: 0/0/0 buffer size: 0 vbv_delay: N/A
[vf#0:0 @ 0000024bd3de4240] Reconfiguring filter graph because video parameters changed to rgb24(pc, gbr), 1008x681
frame=   31 fps=0.0 q=23.0 size=       0KiB time=00:00:05.80 bitrate=   0.1kbits/s speed=11.2x    
frame=  112 fps=107 q=23.0 size=       0KiB time=00:00:22.00 bitrate=   0.0kbits/s speed=  21x    
[out#0/mp4 @ 0000024bd3de5540] video:130KiB audio:0KiB subtitle:0KiB other streams:0KiB global headers:0KiB muxing overhead: 2.250009%
frame=  177 fps=139 q=-1.0 Lsize=     133KiB time=00:00:35.00 bitrate=  31.0kbits/s speed=27.5x    
[libx264 @ 0000024bd3df1440] frame I:2     Avg QP:12.37  size: 43359
[libx264 @ 0000024bd3df1440] frame P:45    Avg QP:14.27  size:   837
[libx264 @ 0000024bd3df1440] frame B:130   Avg QP:23.75  size:    59
[libx264 @ 0000024bd3df1440] consecutive B-frames:  1.7%  1.1%  0.0% 97.2%
[libx264 @ 0000024bd3df1440] mb I  I16..4: 46.1% 26.7% 27.2%
[libx264 @ 0000024bd3df1440] mb P  I16..4:  0.5%  0.1%  0.3%  P16..4:  0.7%  0.1%  0.0%  0.0%  0.0%    skip:98.2%
[libx264 @ 0000024bd3df1440] mb B  I16..4:  0.0%  0.0%  0.0%  B16..8:  0.6%  0.0%  0.0%  direct: 0.0%  skip:99.3%  L0:50.2% L1:49.5% BI: 0.4%
[libx264 @ 0000024bd3df1440] 8x8 transform intra:24.8% inter:66.4%
[libx264 @ 0000024bd3df1440] coded y,uvDC,uvAC intra: 41.6% 23.6% 18.7% inter: 0.1% 0.1% 0.0%
[libx264 @ 0000024bd3df1440] i16 v,h,dc,p: 48% 43%  0%  8%
[libx264 @ 0000024bd3df1440] i8 v,h,dc,ddl,ddr,vr,hd,vl,hu: 50% 19% 25%  1%  2%  1%  1%  0%  1%
[libx264 @ 0000024bd3df1440] i4 v,h,dc,ddl,ddr,vr,hd,vl,hu: 40% 35% 11%  2%  3%  2%  3%  2%  3%
[libx264 @ 0000024bd3df1440] i8c dc,h,v,p: 67% 16%  9%  7%
[libx264 @ 0000024bd3df1440] Weighted P-Frames: Y:0.0% UV:0.0%
[libx264 @ 0000024bd3df1440] ref P L0: 87.8%  1.3%  8.3%  2.6%
[libx264 @ 0000024bd3df1440] ref B L0: 61.7% 36.2%  2.1%
[libx264 @ 0000024bd3df1440] ref B L1: 88.1% 11.9%
[libx264 @ 0000024bd3df1440] kb/s:29.85
[1080s]   videos/image_seg_text/driver.mp4 placed (frames 607..783)
[1080s]   screenshots/image_seg_text_executed.png placed
ffmpeg version 7.1-essentials_build-www.gyan.dev Copyright (c) 2000-2024 the FFmpeg developers
  built with gcc 14.2.0 (Rev1, Built by MSYS2 project)
  configuration: --enable-gpl --enable-version3 --enable-static --disable-w32threads --disable-autodetect --enable-fontconfig --enable-iconv --enable-gnutls --enable-libxml2 --enable-gmp --enable-bzlib --enable-lzma --enable-zlib --enable-libsrt --enable-libssh --enable-libzmq --enable-avisynth --enable-sdl2 --enable-libwebp --enable-libx264 --enable-libx265 --enable-libxvid --enable-libaom --enable-libopenjpeg --enable-libvpx --enable-mediafoundation --enable-libass --enable-libfreetype --enable-libfribidi --enable-libharfbuzz --enable-libvidstab --enable-libvmaf --enable-libzimg --enable-amf --enable-cuda-llvm --enable-cuvid --enable-dxva2 --enable-d3d11va --enable-d3d12va --enable-ffnvcodec --enable-libvpl --enable-nvdec --enable-nvenc --enable-vaapi --enable-libgme --enable-libopenmpt --enable-libopencore-amrwb --enable-libmp3lame --enable-libtheora --enable-libvo-amrwbenc --enable-libgsm --enable-libopencore-amrnb --enable-libopus --enable-libspeex --enable-libvorbis --enable-librubberband
  libavutil      59. 39.100 / 59. 39.100
  libavcodec     61. 19.100 / 61. 19.100
  libavformat    61.  7.100 / 61.  7.100
  libavdevice    61.  3.100 / 61.  3.100
  libavfilter    10.  4.100 / 10.  4.100
  libswscale      8.  3.100 /  8.  3.100
  libswresample   5.  3.100 /  5.  3.100
  libpostproc    58.  3.100 / 58.  3.100
Input #0, image2, from 'D:\a\comfy-gpu-ci\comfy-gpu-ci\comfy-test-logs\SAM3-0301\dev\windows-desktop\debug\electron_inspect\frames\frame_%06d.png':
  Duration: 00:01:23.60, start: 0.000000, bitrate: N/A
  Stream #0:0: Video: png, rgb24(pc, gbr/bt709/iec61966-2-1), 1008x681, 5 fps, 5 tbr, 5 tbn
Stream mapping:
  Stream #0:0 -> #0:0 (png (native) -> h264 (libx264))
Press [q] to stop, [?] for help
[libx264 @ 000002a73551bc80] using cpu capabilities: MMX2 SSE2Fast SSSE3 SSE4.2 AVX FMA3 BMI2 AVX2
[libx264 @ 000002a73551bc80] profile High, level 3.1, 4:2:0, 8-bit
[libx264 @ 000002a73551bc80] 264 - core 164 r3192 c24e06c - H.264/MPEG-4 AVC codec - Copyleft 2003-2024 - http://www.videolan.org/x264.html - options: cabac=1 ref=3 deblock=1:0:0 analyse=0x3:0x113 me=hex subme=7 psy=1 psy_rd=1.00:0.00 mixed_ref=1 me_range=16 chroma_me=1 trellis=1 8x8dct=1 cqm=0 deadzone=21,11 fast_pskip=1 chroma_qp_offset=-2 threads=6 lookahead_threads=1 sliced_threads=0 nr=0 decimate=1 interlaced=0 bluray_compat=0 constrained_intra=0 bframes=3 b_pyramid=2 b_adapt=1 b_bias=0 direct=1 weightb=1 open_gop=0 weightp=2 keyint=250 keyint_min=5 scenecut=40 intra_refresh=0 rc_lookahead=40 rc=crf mbtree=1 crf=23.0 qcomp=0.60 qpmin=0 qpmax=69 qpstep=4 ip_ratio=1.40 aq=1:1.00
Output #0, mp4, to 'D:\a\comfy-gpu-ci\comfy-gpu-ci\comfy-test-logs\SAM3-0301\dev\windows-desktop\videos\scene_seg\driver.mp4':
  Metadata:
    encoder         : Lavf61.7.100
  Stream #0:0: Video: h264 (avc1 / 0x31637661), yuv420p(tv, unknown/bt709/iec61966-2-1, progressive), 1008x682, q=2-31, 5 fps, 10240 tbn
      Metadata:
        encoder         : Lavc61.19.100 libx264
      Side data:
        cpb: bitrate max/min/avg: 0/0/0 buffer size: 0 vbv_delay: N/A
frame=   32 fps=0.0 q=23.0 size=       0KiB time=00:00:06.00 bitrate=   0.1kbits/s speed=11.8x    
frame=  124 fps=119 q=23.0 size=       0KiB time=00:00:24.40 bitrate=   0.0kbits/s speed=23.5x    
[out#0/mp4 @ 000002a7354fb840] video:139KiB audio:0KiB subtitle:0KiB other streams:0KiB global headers:0KiB muxing overhead: 2.248937%
frame=  196 fps=156 q=-1.0 Lsize=     142KiB time=00:00:38.80 bitrate=  30.0kbits/s speed=  31x    
[libx264 @ 000002a73551bc80] frame I:2     Avg QP:12.12  size: 33094
[libx264 @ 000002a73551bc80] frame P:50    Avg QP:14.15  size:  1282
[libx264 @ 000002a73551bc80] frame B:144   Avg QP:23.38  size:    78
[libx264 @ 000002a73551bc80] consecutive B-frames:  1.5%  1.0%  1.5% 95.9%
[libx264 @ 000002a73551bc80] mb I  I16..4: 41.2% 37.0% 21.7%
[libx264 @ 000002a73551bc80] mb P  I16..4:  0.6%  0.2%  0.5%  P16..4:  0.8%  0.1%  0.1%  0.0%  0.0%    skip:97.7%
[libx264 @ 000002a73551bc80] mb B  I16..4:  0.0%  0.0%  0.0%  B16..8:  0.8%  0.0%  0.0%  direct: 0.0%  skip:99.1%  L0:50.5% L1:47.8% BI: 1.7%
[libx264 @ 000002a73551bc80] 8x8 transform intra:32.7% inter:53.0%
[libx264 @ 000002a73551bc80] coded y,uvDC,uvAC intra: 17.8% 21.1% 17.3% inter: 0.1% 0.1% 0.0%
[libx264 @ 000002a73551bc80] i16 v,h,dc,p: 54% 40%  0%  6%
[libx264 @ 000002a73551bc80] i8 v,h,dc,ddl,ddr,vr,hd,vl,hu: 52% 17% 27%  0%  1%  1%  1%  0%  0%
[libx264 @ 000002a73551bc80] i4 v,h,dc,ddl,ddr,vr,hd,vl,hu: 32% 35% 15%  2%  3%  3%  4%  2%  4%
[libx264 @ 000002a73551bc80] i8c dc,h,v,p: 70% 16%  9%  5%
[libx264 @ 000002a73551bc80] Weighted P-Frames: Y:0.0% UV:0.0%
[libx264 @ 000002a73551bc80] ref P L0: 80.5%  3.8% 14.1%  1.7%
[libx264 @ 000002a73551bc80] ref B L0: 68.6% 29.3%  2.1%
[libx264 @ 000002a73551bc80] ref B L1: 94.8%  5.2%
[libx264 @ 000002a73551bc80] kb/s:28.89
[1081s]   videos/scene_seg/driver.mp4 placed (frames 837..1032)
[1081s]   screenshots/scene_seg_executed.png placed
ffmpeg version 7.1-essentials_build-www.gyan.dev Copyright (c) 2000-2024 the FFmpeg developers
  built with gcc 14.2.0 (Rev1, Built by MSYS2 project)
  configuration: --enable-gpl --enable-version3 --enable-static --disable-w32threads --disable-autodetect --enable-fontconfig --enable-iconv --enable-gnutls --enable-libxml2 --enable-gmp --enable-bzlib --enable-lzma --enable-zlib --enable-libsrt --enable-libssh --enable-libzmq --enable-avisynth --enable-sdl2 --enable-libwebp --enable-libx264 --enable-libx265 --enable-libxvid --enable-libaom --enable-libopenjpeg --enable-libvpx --enable-mediafoundation --enable-libass --enable-libfreetype --enable-libfribidi --enable-libharfbuzz --enable-libvidstab --enable-libvmaf --enable-libzimg --enable-amf --enable-cuda-llvm --enable-cuvid --enable-dxva2 --enable-d3d11va --enable-d3d12va --enable-ffnvcodec --enable-libvpl --enable-nvdec --enable-nvenc --enable-vaapi --enable-libgme --enable-libopenmpt --enable-libopencore-amrwb --enable-libmp3lame --enable-libtheora --enable-libvo-amrwbenc --enable-libgsm --enable-libopencore-amrnb --enable-libopus --enable-libspeex --enable-libvorbis --enable-librubberband
  libavutil      59. 39.100 / 59. 39.100
  libavcodec     61. 19.100 / 61. 19.100
  libavformat    61.  7.100 / 61.  7.100
  libavdevice    61.  3.100 / 61.  3.100
  libavfilter    10.  4.100 / 10.  4.100
  libswscale      8.  3.100 /  8.  3.100
  libswresample   5.  3.100 /  5.  3.100
  libpostproc    58.  3.100 / 58.  3.100
Input #0, image2, from 'D:\a\comfy-gpu-ci\comfy-gpu-ci\comfy-test-logs\SAM3-0301\dev\windows-desktop\debug\electron_inspect\frames\frame_%06d.png':
  Duration: 00:00:33.60, start: 0.000000, bitrate: N/A
  Stream #0:0: Video: png, rgb24(pc, gbr/bt709/iec61966-2-1), 1008x681, 5 fps, 5 tbr, 5 tbn
Stream mapping:
  Stream #0:0 -> #0:0 (png (native) -> h264 (libx264))
Press [q] to stop, [?] for help
[libx264 @ 0000019235e14a80] using cpu capabilities: MMX2 SSE2Fast SSSE3 SSE4.2 AVX FMA3 BMI2 AVX2
[libx264 @ 0000019235e14a80] profile High, level 3.1, 4:2:0, 8-bit
[libx264 @ 0000019235e14a80] 264 - core 164 r3192 c24e06c - H.264/MPEG-4 AVC codec - Copyleft 2003-2024 - http://www.videolan.org/x264.html - options: cabac=1 ref=3 deblock=1:0:0 analyse=0x3:0x113 me=hex subme=7 psy=1 psy_rd=1.00:0.00 mixed_ref=1 me_range=16 chroma_me=1 trellis=1 8x8dct=1 cqm=0 deadzone=21,11 fast_pskip=1 chroma_qp_offset=-2 threads=6 lookahead_threads=1 sliced_threads=0 nr=0 decimate=1 interlaced=0 bluray_compat=0 constrained_intra=0 bframes=3 b_pyramid=2 b_adapt=1 b_bias=0 direct=1 weightb=1 open_gop=0 weightp=2 keyint=250 keyint_min=5 scenecut=40 intra_refresh=0 rc_lookahead=40 rc=crf mbtree=1 crf=23.0 qcomp=0.60 qpmin=0 qpmax=69 qpstep=4 ip_ratio=1.40 aq=1:1.00
Output #0, mp4, to 'D:\a\comfy-gpu-ci\comfy-gpu-ci\comfy-test-logs\SAM3-0301\dev\windows-desktop\videos\scene_seg_interactive\driver.mp4':
  Metadata:
    encoder         : Lavf61.7.100
  Stream #0:0: Video: h264 (avc1 / 0x31637661), yuv420p(tv, unknown/bt709/iec61966-2-1, progressive), 1008x682, q=2-31, 5 fps, 10240 tbn
      Metadata:
        encoder         : Lavc61.19.100 libx264
      Side data:
        cpb: bitrate max/min/avg: 0/0/0 buffer size: 0 vbv_delay: N/A
frame=   33 fps=0.0 q=23.0 size=       0KiB time=00:00:06.20 bitrate=   0.1kbits/s speed=  12x    
frame=  111 fps=108 q=23.0 size=       0KiB time=N/A bitrate=N/A speed=N/A    
[out#0/mp4 @ 0000019235e1b9c0] video:140KiB audio:0KiB subtitle:0KiB other streams:0KiB global headers:0KiB muxing overhead: 2.009521%
frame=  168 fps=137 q=-1.0 Lsize=     143KiB time=00:00:33.20 bitrate=  35.2kbits/s speed=  27x    
[libx264 @ 0000019235e14a80] frame I:2     Avg QP:12.90  size: 34640
[libx264 @ 0000019235e14a80] frame P:42    Avg QP:14.04  size:  1278
[libx264 @ 0000019235e14a80] frame B:124   Avg QP:20.40  size:   158
[libx264 @ 0000019235e14a80] consecutive B-frames:  1.2%  1.2%  0.0% 97.6%
[libx264 @ 0000019235e14a80] mb I  I16..4: 46.2% 29.9% 23.9%
[libx264 @ 0000019235e14a80] mb P  I16..4:  0.6%  0.1%  0.4%  P16..4:  1.0%  0.1%  0.1%  0.0%  0.0%    skip:97.7%
[libx264 @ 0000019235e14a80] mb B  I16..4:  0.0%  0.0%  0.0%  B16..8:  6.0%  0.1%  0.0%  direct: 0.0%  skip:93.9%  L0:71.8% L1:28.1% BI: 0.0%
[libx264 @ 0000019235e14a80] 8x8 transform intra:26.0% inter:69.4%
[libx264 @ 0000019235e14a80] coded y,uvDC,uvAC intra: 28.8% 21.6% 17.4% inter: 0.1% 0.2% 0.0%
[libx264 @ 0000019235e14a80] i16 v,h,dc,p: 49% 45%  1%  6%
[libx264 @ 0000019235e14a80] i8 v,h,dc,ddl,ddr,vr,hd,vl,hu: 53% 18% 25%  0%  1%  1%  1%  0%  1%
[libx264 @ 0000019235e14a80] i4 v,h,dc,ddl,ddr,vr,hd,vl,hu: 36% 35% 12%  2%  3%  3%  3%  2%  3%
[libx264 @ 0000019235e14a80] i8c dc,h,v,p: 69% 17% 10%  5%
[libx264 @ 0000019235e14a80] Weighted P-Frames: Y:0.0% UV:0.0%
[libx264 @ 0000019235e14a80] ref P L0: 83.2%  1.9% 13.8%  1.2%
[libx264 @ 0000019235e14a80] ref B L0: 31.7% 68.1%  0.2%
[libx264 @ 0000019235e14a80] ref B L1: 99.3%  0.7%
[libx264 @ 0000019235e14a80] kb/s:33.95
[1083s]   videos/scene_seg_interactive/driver.mp4 placed (frames 1087..1254)
[1083s]   screenshots/scene_seg_interactive_executed.png placed
[1083s]   removed D:\a\comfy-gpu-ci\comfy-gpu-ci\comfy-test-logs\SAM3-0301\dev\windows-desktop\debug\electron_inspect\frames after successful encode
